<svg width="351" height="62" viewBox="0 0 351 62" fill="none" xmlns="http://www.w3.org/2000/svg">
<path d="M20.8099 54H5.84164L20.8099 31.365H35.7782L20.8099 54Z" fill="black"/>
<path d="M15.3334 8H30.6668L15.3334 31.3651H0L15.3334 8Z" fill="black"/>
<path d="M69.7 13.5C72.4 13.5 74.7333 13.95 76.7 14.85C78.7 15.75 80.2333 17.05 81.3 18.75C82.3667 20.4167 82.9 22.4167 82.9 24.75C82.9 27.0833 82.3667 29.1167 81.3 30.85C80.2333 32.55 78.7 33.85 76.7 34.75C74.7333 35.65 72.4 36.1 69.7 36.1H62.4V49H56.1V13.5H69.7ZM69.45 30.55C71.7167 30.55 73.4333 30.0667 74.6 29.1C75.8 28.1333 76.4 26.6833 76.4 24.75C76.4 22.85 75.8 21.4333 74.6 20.5C73.4333 19.5333 71.7167 19.05 69.45 19.05H62.4V30.55H69.45ZM94.3137 22.5L94.5137 29.9L94.0637 29.6C94.397 27.1667 95.097 25.3833 96.1637 24.25C97.2637 23.0833 98.797 22.5 100.764 22.5H103.264V27.35H100.764C99.3637 27.35 98.2137 27.6 97.3137 28.1C96.4137 28.5667 95.747 29.2833 95.3137 30.25C94.9137 31.1833 94.7137 32.3667 94.7137 33.8V49H88.5137V22.5H94.3137ZM118.467 49.6C115.867 49.6 113.584 49.0333 111.617 47.9C109.684 46.7667 108.167 45.15 107.067 43.05C106.001 40.95 105.467 38.5167 105.467 35.75C105.467 32.95 106.001 30.5167 107.067 28.45C108.167 26.35 109.684 24.7333 111.617 23.6C113.584 22.4667 115.867 21.9 118.467 21.9C121.067 21.9 123.351 22.4667 125.317 23.6C127.284 24.7333 128.801 26.35 129.867 28.45C130.934 30.5167 131.467 32.95 131.467 35.75C131.467 38.5167 130.934 40.95 129.867 43.05C128.801 45.15 127.284 46.7667 125.317 47.9C123.351 49.0333 121.067 49.6 118.467 49.6ZM118.467 44.5C120.601 44.5 122.234 43.7333 123.367 42.2C124.501 40.6667 125.067 38.5167 125.067 35.75C125.067 32.9833 124.501 30.8333 123.367 29.3C122.234 27.7667 120.601 27 118.467 27C116.367 27 114.734 27.7667 113.567 29.3C112.434 30.8333 111.867 32.9833 111.867 35.75C111.867 38.5167 112.434 40.6667 113.567 42.2C114.734 43.7333 116.367 44.5 118.467 44.5ZM142.551 22.5L142.701 26.75C143.368 25.2167 144.335 24.0333 145.601 23.2C146.901 22.3333 148.435 21.9 150.201 21.9C152.068 21.9 153.651 22.3833 154.951 23.35C156.285 24.2833 157.235 25.6167 157.801 27.35C158.435 25.55 159.418 24.2 160.751 23.3C162.118 22.3667 163.768 21.9 165.701 21.9C167.468 21.9 169.001 22.2833 170.301 23.05C171.601 23.8167 172.601 24.95 173.301 26.45C174.001 27.95 174.351 29.7833 174.351 31.95V49H168.151V33.9C168.151 31.6333 167.785 29.9167 167.051 28.75C166.351 27.55 165.285 26.95 163.851 26.95C162.718 26.95 161.751 27.2167 160.951 27.75C160.151 28.2833 159.535 29.0667 159.101 30.1C158.701 31.1333 158.501 32.4 158.501 33.9V49H152.801V33.9C152.801 32.4 152.635 31.1333 152.301 30.1C152.001 29.0667 151.518 28.2833 150.851 27.75C150.218 27.2167 149.435 26.95 148.501 26.95C147.368 26.95 146.401 27.2333 145.601 27.8C144.801 28.3333 144.185 29.1167 143.751 30.15C143.351 31.1833 143.151 32.4333 143.151 33.9V49H136.951V22.5H142.551ZM180.75 22.5H186.6L186.8 28.05L186.3 27.4C186.967 25.6333 188.017 24.2833 189.45 23.35C190.917 22.3833 192.683 21.9 194.75 21.9C197.217 21.9 199.3 22.5167 201 23.75C202.7 24.9833 203.967 26.65 204.8 28.75C205.667 30.8167 206.1 33.15 206.1 35.75C206.1 38.35 205.667 40.7 204.8 42.8C203.967 44.8667 202.7 46.5167 201 47.75C199.3 48.9833 197.217 49.6 194.75 49.6C193.383 49.6 192.133 49.3833 191 48.95C189.9 48.5167 188.95 47.8833 188.15 47.05C187.383 46.2167 186.783 45.1833 186.35 43.95L186.95 43.45V56.5H180.75V22.5ZM186.45 35.75C186.45 37.35 186.683 38.8167 187.15 40.15C187.65 41.45 188.4 42.5 189.4 43.3C190.4 44.1 191.617 44.5 193.05 44.5C195.217 44.5 196.85 43.6667 197.95 42C199.083 40.3333 199.65 38.25 199.65 35.75C199.65 33.2833 199.083 31.2 197.95 29.5C196.85 27.8 195.217 26.95 193.05 26.95C191.617 26.95 190.4 27.3667 189.4 28.2C188.4 29 187.65 30.0667 187.15 31.4C186.683 32.7 186.45 34.15 186.45 35.75ZM219.635 16.5V40.95C219.635 41.9833 219.885 42.7667 220.385 43.3C220.918 43.8333 221.668 44.1 222.635 44.1H226.635V49H221.685C218.985 49 216.935 48.3167 215.535 46.95C214.135 45.5833 213.435 43.5833 213.435 40.95V16.5H219.635ZM226.635 22.5V27.35H209.285V22.5H226.635ZM237.418 37.1C237.718 38.5 238.235 39.7333 238.968 40.8C239.702 41.8333 240.668 42.6333 241.868 43.2C243.068 43.7667 244.468 44.05 246.068 44.05C247.402 44.05 248.535 43.8833 249.468 43.55C250.435 43.2167 251.185 42.7167 251.718 42.05C252.252 41.3833 252.502 40.5667 252.468 39.6C252.468 38.1333 251.785 36.9167 250.418 35.95C249.085 34.95 246.852 34.0667 243.718 33.3C239.952 32.4 237.018 31.1167 234.918 29.45C232.818 27.7833 231.768 25.6 231.768 22.9C231.768 20.8333 232.285 19.0333 233.318 17.5C234.385 15.9667 235.868 14.7833 237.768 13.95C239.702 13.1167 241.918 12.7 244.418 12.7C246.985 12.7 249.268 13.2 251.268 14.2C253.302 15.1667 254.902 16.5333 256.068 18.3C257.268 20.0667 258.018 22.1 258.318 24.4L251.918 24.75C251.785 23.4167 251.368 22.2667 250.668 21.3C250.002 20.3 249.118 19.5333 248.018 19C246.918 18.4667 245.685 18.2 244.318 18.2C242.485 18.2 241.002 18.6333 239.868 19.5C238.735 20.3667 238.185 21.5167 238.218 22.95C238.218 23.9833 238.568 24.85 239.268 25.55C240.002 26.25 240.868 26.8 241.868 27.2C242.868 27.5667 244.185 27.9667 245.818 28.4L246.568 28.6C250.435 29.5667 253.452 30.9167 255.618 32.65C257.818 34.3833 258.918 36.5833 258.918 39.25C258.918 41.4167 258.335 43.2833 257.168 44.85C256.002 46.4167 254.418 47.6 252.418 48.4C250.418 49.2 248.218 49.6 245.818 49.6C243.085 49.6 240.618 49.1 238.418 48.1C236.252 47.1 234.518 45.6833 233.218 43.85C231.952 42.0167 231.218 39.8833 231.018 37.45L237.418 37.1ZM264.539 22.5H270.389L270.589 28.05L270.089 27.4C270.756 25.6333 271.806 24.2833 273.239 23.35C274.706 22.3833 276.472 21.9 278.539 21.9C281.006 21.9 283.089 22.5167 284.789 23.75C286.489 24.9833 287.756 26.65 288.589 28.75C289.456 30.8167 289.889 33.15 289.889 35.75C289.889 38.35 289.456 40.7 288.589 42.8C287.756 44.8667 286.489 46.5167 284.789 47.75C283.089 48.9833 281.006 49.6 278.539 49.6C277.172 49.6 275.922 49.3833 274.789 48.95C273.689 48.5167 272.739 47.8833 271.939 47.05C271.172 46.2167 270.572 45.1833 270.139 43.95L270.739 43.45V56.5H264.539V22.5ZM270.239 35.75C270.239 37.35 270.472 38.8167 270.939 40.15C271.439 41.45 272.189 42.5 273.189 43.3C274.189 44.1 275.406 44.5 276.839 44.5C279.006 44.5 280.639 43.6667 281.739 42C282.872 40.3333 283.439 38.25 283.439 35.75C283.439 33.2833 282.872 31.2 281.739 29.5C280.639 27.8 279.006 26.95 276.839 26.95C275.406 26.95 274.189 27.3667 273.189 28.2C272.189 29 271.439 30.0667 270.939 31.4C270.472 32.7 270.239 34.15 270.239 35.75ZM294.14 35.75C294.14 32.95 294.674 30.5167 295.74 28.45C296.807 26.35 298.324 24.7333 300.29 23.6C302.257 22.4667 304.54 21.9 307.14 21.9C309.44 21.9 311.507 22.4167 313.34 23.45C315.174 24.4833 316.64 26.05 317.74 28.15C318.84 30.2167 319.424 32.7667 319.49 35.8V37.45H300.64C300.774 39.7167 301.407 41.4833 302.54 42.75C303.674 43.9833 305.207 44.6 307.14 44.6C308.374 44.6 309.49 44.2833 310.49 43.65C311.524 42.9833 312.29 42.0667 312.79 40.9L319.14 41.35C318.34 43.8833 316.84 45.9 314.64 47.4C312.474 48.8667 309.974 49.6 307.14 49.6C304.54 49.6 302.257 49.0333 300.29 47.9C298.324 46.7667 296.807 45.15 295.74 43.05C294.674 40.95 294.14 38.5167 294.14 35.75ZM313.09 33.2C312.824 31.0333 312.14 29.4333 311.04 28.4C309.974 27.3667 308.674 26.85 307.14 26.85C305.34 26.85 303.89 27.4167 302.79 28.55C301.69 29.65 300.99 31.2 300.69 33.2H313.09ZM342.528 32.15C342.294 30.5167 341.644 29.25 340.578 28.35C339.511 27.45 338.244 27 336.778 27C334.678 27 333.044 27.7667 331.878 29.3C330.744 30.8333 330.178 32.9833 330.178 35.75C330.178 38.5167 330.744 40.6667 331.878 42.2C333.044 43.7333 334.678 44.5 336.778 44.5C338.344 44.5 339.661 44.0333 340.728 43.1C341.794 42.1333 342.461 40.7667 342.728 39L349.128 39.3C348.894 41.4 348.211 43.2333 347.078 44.8C345.944 46.3333 344.478 47.5167 342.678 48.35C340.911 49.1833 338.944 49.6 336.778 49.6C334.178 49.6 331.894 49.0333 329.928 47.9C327.994 46.7667 326.478 45.15 325.378 43.05C324.311 40.95 323.778 38.5167 323.778 35.75C323.778 32.95 324.311 30.5167 325.378 28.45C326.478 26.35 327.994 24.7333 329.928 23.6C331.894 22.4667 334.178 21.9 336.778 21.9C338.878 21.9 340.811 22.3 342.578 23.1C344.344 23.9 345.778 25.05 346.878 26.55C348.011 28.05 348.694 29.8 348.928 31.8L342.528 32.15Z" fill="black"/>
</svg>
